<svg width="568" height="180" viewBox="0 0 568 180" fill="none" xmlns="http://www.w3.org/2000/svg">
<path d="M505.711 82.9926C505.711 78.6931 506.915 74.9955 509.322 71.8999C511.816 68.7183 515.213 66.2676 519.512 64.5478C523.812 62.828 528.799 61.9681 534.474 61.9681C537.484 61.9681 540.666 62.2261 544.019 62.742C547.373 63.172 550.34 63.8599 552.919 64.8058V59.9044C552.919 54.745 551.371 50.7035 548.276 47.7798C545.18 44.7702 540.795 43.2654 535.119 43.2654C531.422 43.2654 527.853 43.9533 524.414 45.3291C521.06 46.619 517.491 48.5108 513.708 51.0045L509.58 43.0074C513.966 39.9978 518.351 37.7621 522.737 36.3002C527.122 34.7524 531.68 33.9785 536.409 33.9785C545.008 33.9785 551.801 36.3862 556.789 41.2016C561.776 45.9311 564.27 52.5523 564.27 61.0652V89.5708C564.27 90.9466 564.528 91.9785 565.044 92.6664C565.646 93.2683 566.592 93.6123 567.881 93.6983V102.469C566.764 102.641 565.775 102.77 564.915 102.856C564.141 102.942 563.496 102.985 562.98 102.985C560.314 102.985 558.294 102.254 556.918 100.792C555.628 99.3306 554.897 97.7828 554.725 96.149L554.467 91.8925C551.543 95.676 547.717 98.5997 542.987 100.663C538.258 102.727 533.572 103.759 528.928 103.759C524.457 103.759 520.458 102.856 516.933 101.05C513.407 99.1586 510.655 96.6649 508.678 93.5693C506.7 90.3877 505.711 86.8621 505.711 82.9926ZM549.566 87.765C550.597 86.5611 551.414 85.3573 552.016 84.1534C552.618 82.8636 552.919 81.7887 552.919 80.9288V72.5448C550.254 71.513 547.459 70.7391 544.535 70.2231C541.612 69.6212 538.731 69.3202 535.893 69.3202C530.132 69.3202 525.446 70.4811 521.834 72.8028C518.308 75.0385 516.546 78.1342 516.546 82.0897C516.546 84.2394 517.105 86.3462 518.222 88.4099C519.426 90.3877 521.146 92.0215 523.382 93.3113C525.703 94.6012 528.541 95.2461 531.895 95.2461C535.42 95.2461 538.774 94.5582 541.956 93.1823C545.137 91.7205 547.674 89.9147 549.566 87.765Z" fill="#34828C"/>
<path d="M419.293 102.47V35.1406H431.031L456.054 79.2533L481.205 35.1406H492.685V102.47H481.85V51.5216L459.665 90.4749H452.442L430.128 51.5216V102.47H419.293Z" fill="#34828C"/>
<path d="M342.715 82.9926C342.715 78.6931 343.919 74.9955 346.326 71.8999C348.82 68.7183 352.217 66.2676 356.516 64.5478C360.816 62.828 365.803 61.9681 371.478 61.9681C374.488 61.9681 377.67 62.2261 381.023 62.742C384.377 63.172 387.343 63.8599 389.923 64.8058V59.9044C389.923 54.745 388.375 50.7035 385.28 47.7798C382.184 44.7702 377.799 43.2654 372.123 43.2654C368.426 43.2654 364.857 43.9533 361.418 45.3291C358.064 46.619 354.495 48.5108 350.712 51.0045L346.584 43.0074C350.97 39.9978 355.355 37.7621 359.741 36.3002C364.126 34.7524 368.684 33.9785 373.413 33.9785C382.012 33.9785 388.805 36.3862 393.793 41.2016C398.78 45.9311 401.274 52.5523 401.274 61.0652V89.5708C401.274 90.9466 401.532 91.9785 402.048 92.6664C402.65 93.2683 403.595 93.6123 404.885 93.6983V102.469C403.767 102.641 402.779 102.77 401.919 102.856C401.145 102.942 400.5 102.985 399.984 102.985C397.318 102.985 395.297 102.254 393.922 100.792C392.632 99.3306 391.901 97.7828 391.729 96.149L391.471 91.8925C388.547 95.676 384.721 98.5997 379.991 100.663C375.262 102.727 370.575 103.759 365.932 103.759C361.461 103.759 357.462 102.856 353.936 101.05C350.411 99.1586 347.659 96.6649 345.681 93.5693C343.704 90.3877 342.715 86.8621 342.715 82.9926ZM386.57 87.765C387.601 86.5611 388.418 85.3573 389.02 84.1534C389.622 82.8636 389.923 81.7887 389.923 80.9288V72.5448C387.257 71.513 384.463 70.7391 381.539 70.2231C378.615 69.6212 375.735 69.3202 372.897 69.3202C367.136 69.3202 362.449 70.4811 358.838 72.8028C355.312 75.0385 353.55 78.1342 353.55 82.0897C353.55 84.2394 354.108 86.3462 355.226 88.4099C356.43 90.3877 358.15 92.0215 360.386 93.3113C362.707 94.6012 365.545 95.2461 368.899 95.2461C372.424 95.2461 375.778 94.5582 378.959 93.1823C382.141 91.7205 384.678 89.9147 386.57 87.765Z" fill="#34828C"/>
<path d="M267.5 102.986V92.7966C269.736 92.7966 271.713 92.2377 273.433 91.1198C275.239 89.916 276.83 87.9382 278.206 85.1866C279.582 82.3489 280.656 78.4794 281.43 73.578C282.29 68.5906 282.849 62.2703 283.107 54.6173L283.881 35.1406H329.67V102.47H318.32V45.2014H293.942L293.684 55.6491C293.34 64.85 292.566 72.5031 291.362 78.6083C290.158 84.7136 288.481 89.529 286.332 93.0546C284.182 96.5802 281.516 99.1169 278.335 100.665C275.239 102.212 271.628 102.986 267.5 102.986Z" fill="#34828C"/>
<path d="M206.422 102.47V35.1406H217.772V62.8723H225.254L246.407 35.1406H259.305L234.154 67.7737L262.272 102.47H249.116L225.254 73.32H217.772V102.47H206.422Z" fill="#34828C"/>
<path d="M160.138 103.759C155.065 103.759 150.421 102.856 146.208 101.05C142.08 99.1586 138.469 96.6219 135.373 93.4403C132.363 90.1727 129.999 86.4322 128.279 82.2187C126.645 78.0052 125.828 73.5337 125.828 68.8043C125.828 62.4411 127.29 56.6368 130.214 51.3914C133.137 46.146 137.179 41.9325 142.338 38.7509C147.583 35.5693 153.56 33.9785 160.267 33.9785C167.06 33.9785 172.95 35.6123 177.938 38.8799C183.011 42.0615 186.924 46.275 189.675 51.5204C192.513 56.6798 193.932 62.2691 193.932 68.2884C193.932 69.1483 193.889 70.0082 193.803 70.868C193.803 71.642 193.76 72.2439 193.674 72.6738H137.824C138.168 77.0593 139.371 80.9718 141.435 84.4114C143.585 87.765 146.337 90.4307 149.69 92.4084C153.044 94.3002 156.655 95.2461 160.525 95.2461C164.652 95.2461 168.522 94.2142 172.134 92.1505C175.831 90.0867 178.368 87.378 179.744 84.0244L189.546 86.7331C188.085 90.0007 185.892 92.9244 182.968 95.5041C180.131 98.0837 176.734 100.105 172.778 101.566C168.909 103.028 164.695 103.759 160.138 103.759ZM137.437 64.8058H183.355C183.011 60.4203 181.764 56.5508 179.615 53.1972C177.465 49.8436 174.713 47.2209 171.36 45.3291C168.006 43.4374 164.308 42.4915 160.267 42.4915C156.311 42.4915 152.657 43.4374 149.303 45.3291C145.95 47.2209 143.198 49.8436 141.048 53.1972C138.985 56.5508 137.781 60.4203 137.437 64.8058Z" fill="#34828C"/>
<path d="M51.7852 102.47V10.8906H89.9645C94.006 10.8906 97.7036 11.7505 101.057 13.4703C104.411 15.1041 107.334 17.3398 109.828 20.1775C112.322 22.9292 114.257 26.0678 115.632 29.5934C117.008 33.0329 117.696 36.5585 117.696 40.1701C117.696 45.1575 116.578 49.9299 114.343 54.4873C112.107 58.9588 108.968 62.6134 104.927 65.451C100.885 68.2027 96.1558 69.5785 90.7384 69.5785H63.3938V102.47H51.7852ZM63.3938 59.2598H90.0935C93.2751 59.2598 96.0268 58.3999 98.3485 56.6801C100.756 54.9603 102.605 52.6386 103.895 49.7149C105.271 46.7913 105.959 43.6097 105.959 40.1701C105.959 36.5585 105.185 33.3339 103.637 30.4963C102.089 27.5726 100.068 25.2939 97.5746 23.6601C95.0809 22.0263 92.3292 21.2094 89.3196 21.2094H63.3938V59.2598Z" fill="#34828C"/>
<path d="M528.491 147.759C528.491 152.039 529.408 155.823 531.242 159.109C533.077 162.396 535.561 164.995 538.695 166.906C541.905 168.74 545.497 169.658 549.472 169.658C552.3 169.658 554.937 169.237 557.383 168.396C559.829 167.556 561.931 166.485 563.689 165.186C565.523 163.81 566.823 162.434 567.587 161.059V168.511C565.982 170.422 563.498 172.027 560.135 173.326C556.848 174.626 553.294 175.276 549.472 175.276C544.351 175.276 539.765 174.091 535.714 171.721C531.663 169.352 528.414 166.103 525.968 161.976C523.599 157.772 522.414 153.033 522.414 147.759C522.414 142.408 523.599 137.669 525.968 133.542C528.414 129.414 531.663 126.166 535.714 123.796C539.765 121.427 544.351 120.242 549.472 120.242C553.294 120.242 556.848 120.93 560.135 122.306C563.498 123.605 565.982 125.172 567.587 127.007V134.459C566.823 133.007 565.523 131.631 563.689 130.332C561.931 129.032 559.829 127.962 557.383 127.121C554.937 126.281 552.3 125.86 549.472 125.86C545.497 125.86 541.905 126.816 538.695 128.726C535.561 130.561 533.077 133.122 531.242 136.408C529.408 139.695 528.491 143.478 528.491 147.759Z" fill="#B3111C"/>
<path d="M444.679 149.249V143.631H464.17V149.249H444.679ZM441.125 121.389H447.087V174.129H441.125V121.389ZM459.928 147.759C459.928 142.408 461.113 137.669 463.482 133.542C465.852 129.414 469.062 126.166 473.113 123.796C477.241 121.427 481.865 120.242 486.986 120.242C492.107 120.242 496.693 121.427 500.744 123.796C504.795 126.166 508.006 129.414 510.375 133.542C512.821 137.669 514.044 142.408 514.044 147.759C514.044 153.033 512.821 157.772 510.375 161.976C508.006 166.103 504.795 169.352 500.744 171.721C496.693 174.091 492.107 175.276 486.986 175.276C481.941 175.276 477.355 174.091 473.228 171.721C469.1 169.352 465.852 166.103 463.482 161.976C461.113 157.772 459.928 153.033 459.928 147.759ZM466.005 147.759C466.005 152.039 466.922 155.823 468.756 159.109C470.591 162.396 473.075 164.995 476.209 166.906C479.419 168.74 483.011 169.658 486.986 169.658C490.961 169.658 494.515 168.74 497.649 166.906C500.859 164.995 503.381 162.396 505.216 159.109C507.05 155.823 507.968 152.039 507.968 147.759C507.968 143.555 507.05 139.81 505.216 136.523C503.381 133.16 500.859 130.561 497.649 128.726C494.515 126.816 490.961 125.86 486.986 125.86C483.011 125.86 479.419 126.816 476.209 128.726C473.075 130.561 470.591 133.122 468.756 136.408C466.922 139.695 466.005 143.478 466.005 147.759Z" fill="#B3111C"/>
<path d="M423.322 121.389V174.129H417.36V127.007H387.207V155.784C387.207 159.912 386.633 163.352 385.487 166.103C384.417 168.778 382.812 170.804 380.671 172.18C378.531 173.479 375.932 174.129 372.875 174.129V168.626C375.168 168.626 377.117 167.594 378.722 165.53C380.404 163.466 381.245 160.218 381.245 155.784V121.389H423.322Z" fill="#B3111C"/>
<path d="M363.12 121.389V174.129H357.159V127.007H329.298V174.129H323.336V121.389H363.12Z" fill="#B3111C"/>
<path fill-rule="evenodd" clip-rule="evenodd" d="M34.3941 -2.19259e-07C37.1644 -9.81655e-08 39.4102 2.24577 39.4102 5.01606L39.4101 174.129C39.4101 176.899 37.1644 179.145 34.3941 179.145C31.6238 179.145 29.378 176.899 29.378 174.129L29.378 5.01606C29.378 2.24577 31.6238 -3.40352e-07 34.3941 -2.19259e-07Z" fill="#34828C"/>
<path fill-rule="evenodd" clip-rule="evenodd" d="M-2.48149e-07 145.466C-1.111e-07 143.883 1.28329 142.6 2.86632 142.6L298.097 142.6C299.68 142.6 300.964 143.883 300.964 145.466C300.964 147.049 299.68 148.332 298.097 148.332L2.86632 148.332C1.28329 148.332 -3.85198e-07 147.049 -2.48149e-07 145.466Z" fill="#B3111C"/>
</svg>
