<svg width="199" height="63" viewBox="0 0 199 63" fill="none" xmlns="http://www.w3.org/2000/svg">
<path d="M176.43 28.9545C176.43 27.4545 176.85 26.1645 177.69 25.0845C178.56 23.9745 179.745 23.1195 181.245 22.5195C182.745 21.9195 184.485 21.6195 186.465 21.6195C187.515 21.6195 188.625 21.7095 189.795 21.8895C190.965 22.0395 192 22.2795 192.9 22.6095V20.8995C192.9 19.0995 192.36 17.6895 191.28 16.6695C190.2 15.6195 188.67 15.0945 186.69 15.0945C185.4 15.0945 184.155 15.3345 182.955 15.8145C181.785 16.2645 180.54 16.9245 179.22 17.7945L177.78 15.0045C179.31 13.9545 180.84 13.1745 182.37 12.6645C183.9 12.1245 185.49 11.8545 187.14 11.8545C190.14 11.8545 192.51 12.6945 194.25 14.3745C195.99 16.0245 196.86 18.3345 196.86 21.3045V31.2495C196.86 31.7295 196.95 32.0895 197.13 32.3295C197.34 32.5395 197.67 32.6595 198.12 32.6895V35.7495C197.73 35.8095 197.385 35.8545 197.085 35.8845C196.815 35.9145 196.59 35.9295 196.41 35.9295C195.48 35.9295 194.775 35.6745 194.295 35.1645C193.845 34.6545 193.59 34.1145 193.53 33.5445L193.44 32.0595C192.42 33.3795 191.085 34.3995 189.435 35.1195C187.785 35.8395 186.15 36.1995 184.53 36.1995C182.97 36.1995 181.575 35.8845 180.345 35.2545C179.115 34.5945 178.155 33.7245 177.465 32.6445C176.775 31.5345 176.43 30.3045 176.43 28.9545ZM191.73 30.6195C192.09 30.1995 192.375 29.7795 192.585 29.3595C192.795 28.9095 192.9 28.5345 192.9 28.2345V25.3095C191.97 24.9495 190.995 24.6795 189.975 24.4995C188.955 24.2895 187.95 24.1845 186.96 24.1845C184.95 24.1845 183.315 24.5895 182.055 25.3995C180.825 26.1795 180.21 27.2595 180.21 28.6395C180.21 29.3895 180.405 30.1245 180.795 30.8445C181.215 31.5345 181.815 32.1045 182.595 32.5545C183.405 33.0045 184.395 33.2295 185.565 33.2295C186.795 33.2295 187.965 32.9895 189.075 32.5095C190.185 31.9995 191.07 31.3695 191.73 30.6195Z" fill="#34828C"/>
<path d="M146.281 35.7498V12.2598H150.376L159.106 27.6498L167.881 12.2598H171.886V35.7498H168.106V17.9748L160.366 31.5648H157.846L150.061 17.9748V35.7498H146.281Z" fill="#34828C"/>
<path d="M119.566 28.9545C119.566 27.4545 119.986 26.1645 120.826 25.0845C121.696 23.9745 122.881 23.1195 124.381 22.5195C125.881 21.9195 127.621 21.6195 129.601 21.6195C130.651 21.6195 131.761 21.7095 132.931 21.8895C134.101 22.0395 135.136 22.2795 136.036 22.6095V20.8995C136.036 19.0995 135.496 17.6895 134.416 16.6695C133.336 15.6195 131.806 15.0945 129.826 15.0945C128.536 15.0945 127.291 15.3345 126.091 15.8145C124.921 16.2645 123.676 16.9245 122.356 17.7945L120.916 15.0045C122.446 13.9545 123.976 13.1745 125.506 12.6645C127.036 12.1245 128.626 11.8545 130.276 11.8545C133.276 11.8545 135.646 12.6945 137.386 14.3745C139.126 16.0245 139.996 18.3345 139.996 21.3045V31.2495C139.996 31.7295 140.086 32.0895 140.266 32.3295C140.476 32.5395 140.806 32.6595 141.256 32.6895V35.7495C140.866 35.8095 140.521 35.8545 140.221 35.8845C139.951 35.9145 139.726 35.9295 139.546 35.9295C138.616 35.9295 137.911 35.6745 137.431 35.1645C136.981 34.6545 136.726 34.1145 136.666 33.5445L136.576 32.0595C135.556 33.3795 134.221 34.3995 132.571 35.1195C130.921 35.8395 129.286 36.1995 127.666 36.1995C126.106 36.1995 124.711 35.8845 123.481 35.2545C122.251 34.5945 121.291 33.7245 120.601 32.6445C119.911 31.5345 119.566 30.3045 119.566 28.9545ZM134.866 30.6195C135.226 30.1995 135.511 29.7795 135.721 29.3595C135.931 28.9095 136.036 28.5345 136.036 28.2345V25.3095C135.106 24.9495 134.131 24.6795 133.111 24.4995C132.091 24.2895 131.086 24.1845 130.096 24.1845C128.086 24.1845 126.451 24.5895 125.191 25.3995C123.961 26.1795 123.346 27.2595 123.346 28.6395C123.346 29.3895 123.541 30.1245 123.931 30.8445C124.351 31.5345 124.951 32.1045 125.731 32.5545C126.541 33.0045 127.531 33.2295 128.701 33.2295C129.931 33.2295 131.101 32.9895 132.211 32.5095C133.321 31.9995 134.206 31.3695 134.866 30.6195Z" fill="#34828C"/>
<path d="M93.3242 35.9298V32.3748C94.1042 32.3748 94.7942 32.1798 95.3942 31.7898C96.0242 31.3698 96.5792 30.6798 97.0592 29.7198C97.5392 28.7298 97.9142 27.3798 98.1842 25.6698C98.4842 23.9298 98.6792 21.7248 98.7692 19.0548L99.0392 12.2598H115.014V35.7498H111.054V15.7698H102.549L102.459 19.4148C102.339 22.6248 102.069 25.2948 101.649 27.4248C101.229 29.5548 100.644 31.2348 99.8942 32.4648C99.1442 33.6948 98.2142 34.5798 97.1042 35.1198C96.0242 35.6598 94.7642 35.9298 93.3242 35.9298Z" fill="#34828C"/>
<path d="M72.0156 35.7498V12.2598H75.9756V21.9348H78.5856L85.9656 12.2598H90.4656L81.6906 23.6448L91.5006 35.7498H86.9106L78.5856 25.5798H75.9756V35.7498H72.0156Z" fill="#34828C"/>
<path d="M55.8684 36.1995C54.0984 36.1995 52.4784 35.8845 51.0084 35.2545C49.5684 34.5945 48.3084 33.7095 47.2284 32.5995C46.1784 31.4595 45.3534 30.1545 44.7534 28.6845C44.1834 27.2145 43.8984 25.6545 43.8984 24.0045C43.8984 21.7845 44.4084 19.7595 45.4284 17.9295C46.4484 16.0995 47.8584 14.6295 49.6584 13.5195C51.4884 12.4095 53.5734 11.8545 55.9134 11.8545C58.2834 11.8545 60.3384 12.4245 62.0784 13.5645C63.8484 14.6745 65.2134 16.1445 66.1734 17.9745C67.1634 19.7745 67.6584 21.7245 67.6584 23.8245C67.6584 24.1245 67.6434 24.4245 67.6134 24.7245C67.6134 24.9945 67.5984 25.2045 67.5684 25.3545H48.0834C48.2034 26.8845 48.6234 28.2495 49.3434 29.4495C50.0934 30.6195 51.0534 31.5495 52.2234 32.2395C53.3934 32.8995 54.6534 33.2295 56.0034 33.2295C57.4434 33.2295 58.7934 32.8695 60.0534 32.1495C61.3434 31.4295 62.2284 30.4845 62.7084 29.3145L66.1284 30.2595C65.6184 31.3995 64.8534 32.4195 63.8334 33.3195C62.8434 34.2195 61.6584 34.9245 60.2784 35.4345C58.9284 35.9445 57.4584 36.1995 55.8684 36.1995ZM47.9484 22.6095H63.9684C63.8484 21.0795 63.4134 19.7295 62.6634 18.5595C61.9134 17.3895 60.9534 16.4745 59.7834 15.8145C58.6134 15.1545 57.3234 14.8245 55.9134 14.8245C54.5334 14.8245 53.2584 15.1545 52.0884 15.8145C50.9184 16.4745 49.9584 17.3895 49.2084 18.5595C48.4884 19.7295 48.0684 21.0795 47.9484 22.6095Z" fill="#34828C"/>
<path d="M18.0664 35.7498V3.7998H31.3864C32.7964 3.7998 34.0864 4.0998 35.2564 4.6998C36.4264 5.2698 37.4464 6.04981 38.3164 7.03981C39.1864 7.99981 39.8614 9.09481 40.3414 10.3248C40.8214 11.5248 41.0614 12.7548 41.0614 14.0148C41.0614 15.7548 40.6714 17.4198 39.8914 19.0098C39.1114 20.5698 38.0164 21.8448 36.6064 22.8348C35.1964 23.7948 33.5464 24.2748 31.6564 24.2748H22.1164V35.7498H18.0664ZM22.1164 20.6748H31.4314C32.5414 20.6748 33.5014 20.3748 34.3114 19.7748C35.1514 19.1748 35.7964 18.3648 36.2464 17.3448C36.7264 16.3248 36.9664 15.2148 36.9664 14.0148C36.9664 12.7548 36.6964 11.6298 36.1564 10.6398C35.6164 9.61981 34.9114 8.82481 34.0414 8.25481C33.1714 7.6848 32.2114 7.3998 31.1614 7.3998H22.1164V20.6748Z" fill="#34828C"/>
<path d="M184.378 51.5502C184.378 53.0435 184.698 54.3635 185.338 55.5102C185.978 56.6569 186.844 57.5635 187.938 58.2302C189.058 58.8702 190.311 59.1902 191.698 59.1902C192.684 59.1902 193.604 59.0435 194.458 58.7502C195.311 58.4569 196.044 58.0835 196.658 57.6302C197.298 57.1502 197.751 56.6702 198.018 56.1902V58.7902C197.458 59.4569 196.591 60.0169 195.418 60.4702C194.271 60.9235 193.031 61.1502 191.698 61.1502C189.911 61.1502 188.311 60.7369 186.898 59.9102C185.484 59.0835 184.351 57.9502 183.498 56.5102C182.671 55.0435 182.258 53.3902 182.258 51.5502C182.258 49.6835 182.671 48.0302 183.498 46.5902C184.351 45.1502 185.484 44.0169 186.898 43.1902C188.311 42.3635 189.911 41.9502 191.698 41.9502C193.031 41.9502 194.271 42.1902 195.418 42.6702C196.591 43.1235 197.458 43.6702 198.018 44.3102V46.9102C197.751 46.4035 197.298 45.9235 196.658 45.4702C196.044 45.0169 195.311 44.6435 194.458 44.3502C193.604 44.0569 192.684 43.9102 191.698 43.9102C190.311 43.9102 189.058 44.2435 187.938 44.9102C186.844 45.5502 185.978 46.4435 185.338 47.5902C184.698 48.7369 184.378 50.0569 184.378 51.5502Z" fill="#B3111C"/>
<path d="M155.138 52.0702V50.1102H161.938V52.0702H155.138ZM153.898 42.3502H155.978V60.7502H153.898V42.3502ZM160.458 51.5502C160.458 49.6835 160.872 48.0302 161.698 46.5902C162.525 45.1502 163.645 44.0169 165.058 43.1902C166.498 42.3635 168.112 41.9502 169.898 41.9502C171.685 41.9502 173.285 42.3635 174.698 43.1902C176.112 44.0169 177.232 45.1502 178.058 46.5902C178.912 48.0302 179.338 49.6835 179.338 51.5502C179.338 53.3902 178.912 55.0435 178.058 56.5102C177.232 57.9502 176.112 59.0835 174.698 59.9102C173.285 60.7369 171.685 61.1502 169.898 61.1502C168.138 61.1502 166.538 60.7369 165.098 59.9102C163.658 59.0835 162.525 57.9502 161.698 56.5102C160.872 55.0435 160.458 53.3902 160.458 51.5502ZM162.578 51.5502C162.578 53.0435 162.898 54.3635 163.538 55.5102C164.178 56.6569 165.045 57.5635 166.138 58.2302C167.258 58.8702 168.512 59.1902 169.898 59.1902C171.285 59.1902 172.525 58.8702 173.618 58.2302C174.738 57.5635 175.618 56.6569 176.258 55.5102C176.898 54.3635 177.218 53.0435 177.218 51.5502C177.218 50.0835 176.898 48.7769 176.258 47.6302C175.618 46.4569 174.738 45.5502 173.618 44.9102C172.525 44.2435 171.285 43.9102 169.898 43.9102C168.512 43.9102 167.258 44.2435 166.138 44.9102C165.045 45.5502 164.178 46.4435 163.538 47.5902C162.898 48.7369 162.578 50.0569 162.578 51.5502Z" fill="#B3111C"/>
<path d="M147.686 42.3506V60.7506H145.606V44.3106H135.086V54.3506C135.086 55.7906 134.886 56.9906 134.486 57.9506C134.113 58.8839 133.553 59.5906 132.806 60.0706C132.059 60.5239 131.153 60.7506 130.086 60.7506V58.8306C130.886 58.8306 131.566 58.4706 132.126 57.7506C132.713 57.0306 133.006 55.8973 133.006 54.3506V42.3506H147.686Z" fill="#B3111C"/>
<path d="M126.685 42.3506V60.7506H124.605V44.3106H114.885V60.7506H112.805V42.3506H126.685Z" fill="#B3111C"/>
<path fill-rule="evenodd" clip-rule="evenodd" d="M12 -7.64949e-08C12.9665 -3.42479e-08 13.75 0.783502 13.75 1.75L13.75 60.75C13.75 61.7165 12.9665 62.5 12 62.5C11.0335 62.5 10.25 61.7165 10.25 60.75L10.25 1.75C10.25 0.783502 11.0335 -1.18742e-07 12 -7.64949e-08Z" fill="#34828C"/>
<path fill-rule="evenodd" clip-rule="evenodd" d="M-8.6574e-08 50.75C-3.87605e-08 50.1977 0.447715 49.75 1 49.75L104 49.75C104.552 49.75 105 50.1977 105 50.75C105 51.3023 104.552 51.75 104 51.75L1 51.75C0.447715 51.75 -1.34388e-07 51.3023 -8.6574e-08 50.75Z" fill="#B3111C"/>
</svg>
